<svg xmlns="http://www.w3.org/2000/svg" width="30" height="30" viewBox="0 0 30 30" fill="none">
  <path d="M22.6575 17.8362C20.5723 17.8362 18.876 19.5325 18.876 21.6177C18.876 23.7029 20.5723 25.3992 22.6575 25.3992C24.743 25.3992 26.439 23.7029 26.439 21.6177C26.439 19.5325 24.7427 17.8362 22.6575 17.8362ZM22.6575 23.5085C21.6148 23.5085 20.7667 22.6604 20.7667 21.6177C20.7667 20.575 21.6148 19.7269 22.6575 19.7269C23.7002 19.7269 24.5483 20.575 24.5483 21.6177C24.5483 22.6605 23.7002 23.5085 22.6575 23.5085Z" fill="#222222"/>
  <path d="M9.73758 17.8362C7.6524 17.8362 5.95605 19.5325 5.95605 21.6177C5.95605 23.7029 7.6524 25.3992 9.73758 25.3992C11.8228 25.3992 13.5191 23.7029 13.5191 21.6177C13.5191 19.5325 11.8228 17.8362 9.73758 17.8362ZM9.73758 23.5085C8.69484 23.5085 7.84682 22.6604 7.84682 21.6177C7.84682 20.575 8.69484 19.7269 9.73758 19.7269C10.78 19.7269 11.6283 20.575 11.6283 21.6177C11.6283 22.6605 10.7803 23.5085 9.73758 23.5085Z" fill="#222222"/>
  <path d="M25.2042 7.01218C25.0435 6.69296 24.7167 6.49158 24.3594 6.49158H19.3804V8.38234H23.7764L26.3506 13.5025L28.0404 12.6529L25.2042 7.01218Z" fill="#222222"/>
  <path d="M19.8213 20.7036H12.668V22.5944H19.8213V20.7036Z" fill="#222222"/>
  <path d="M6.90133 20.7036H3.62406C3.10187 20.7036 2.67871 21.1268 2.67871 21.649C2.67871 22.1712 3.10193 22.5943 3.62406 22.5943H6.90139C7.42357 22.5943 7.84674 22.1711 7.84674 21.649C7.84674 21.1268 7.42351 20.7036 6.90133 20.7036Z" fill="#222222"/>
  <path d="M29.8016 14.9243L27.942 12.5294C27.7634 12.2987 27.4876 12.1638 27.1955 12.1638H20.3257V5.54618C20.3257 5.02399 19.9025 4.60083 19.3804 4.60083H3.62406C3.10187 4.60083 2.67871 5.02405 2.67871 5.54618C2.67871 6.06831 3.10193 6.49153 3.62406 6.49153H18.435V13.1092C18.435 13.6314 18.8582 14.0545 19.3803 14.0545H26.7325L28.1093 15.828V20.7037H25.4938C24.9716 20.7037 24.5484 21.1269 24.5484 21.649C24.5484 22.1712 24.9716 22.5944 25.4938 22.5944H29.0547C29.5769 22.5944 30 22.1712 30.0001 21.649V15.5042C30.0001 15.2943 29.9301 15.0901 29.8016 14.9243Z" fill="#222222"/>
  <path d="M6.83807 15.9138H2.4893C1.96711 15.9138 1.54395 16.337 1.54395 16.8592C1.54395 17.3814 1.96717 17.8045 2.4893 17.8045H6.83801C7.3602 17.8045 7.78336 17.3813 7.78336 16.8592C7.78342 16.337 7.3602 15.9138 6.83807 15.9138Z" fill="#222222"/>
  <path d="M9.0126 12.1954H0.945352C0.423223 12.1954 0 12.6187 0 13.1408C0 13.663 0.423223 14.0862 0.945352 14.0862H9.0126C9.53479 14.0862 9.95795 13.663 9.95795 13.1408C9.95795 12.6187 9.53479 12.1954 9.0126 12.1954Z" fill="#222222"/>
  <path d="M10.5565 8.47693H2.4893C1.96711 8.47693 1.54395 8.90015 1.54395 9.42228C1.54395 9.94447 1.96717 10.3676 2.4893 10.3676H10.5565C11.0787 10.3676 11.5019 9.94441 11.5019 9.42228C11.502 8.90015 11.0787 8.47693 10.5565 8.47693Z" fill="#222222"/>
</svg>