<svg xmlns="http://www.w3.org/2000/svg" width="18" height="18" viewBox="0 0 18 18" fill="none">
  <g clip-path="url(#clip0_3_934)">
    <path d="M18 9C18 13.9706 13.9706 18 9 18C4.02937 18 0 13.9706 0 9C0 4.02937 4.02937 0 9 0C13.9706 0 18 4.02937 18 9Z" fill="#474747"/>
    <path d="M9 16.0312C5.12292 16.0312 1.96875 12.8771 1.96875 9C1.96875 5.12292 5.12292 1.96875 9 1.96875C12.8771 1.96875 16.0312 5.12292 16.0312 9C16.0312 12.8771 12.8771 16.0312 9 16.0312ZM9 3.02344C5.70451 3.02344 3.02344 5.70451 3.02344 9C3.02344 12.2955 5.70451 14.9766 9 14.9766C12.2955 14.9766 14.9766 12.2955 14.9766 9C14.9766 5.70451 12.2955 3.02344 9 3.02344Z" fill="white"/>
    <ellipse cx="8.99993" cy="9.00017" rx="7.71429" ry="7.71429" fill="#474747"/>
    <path d="M9 12.4799C8.70872 12.4799 8.47266 12.2439 8.47266 11.9526V8.4032C8.47266 8.11206 8.70872 7.87585 9 7.87585C9.29128 7.87585 9.52734 8.11206 9.52734 8.4032V11.9526C9.52734 12.2439 9.29128 12.4799 9 12.4799Z" fill="white"/>
    <path d="M9.74396 6.43301C9.74396 6.8439 9.4108 7.17706 8.99991 7.17706C8.58902 7.17706 8.25586 6.8439 8.25586 6.43301C8.25586 6.02199 8.58902 5.68896 8.99991 5.68896C9.4108 5.68896 9.74396 6.02199 9.74396 6.43301Z" fill="white"/>
  </g>
  <defs>
    <clipPath id="clip0_3_934">
      <rect width="18" height="18" fill="white"/>
    </clipPath>
  </defs>
</svg>