<svg xmlns="http://www.w3.org/2000/svg" width="18" height="18" viewBox="0 0 18 18" fill="none">
  <g clip-path="url(#clip0_3_1354)">
    <path d="M12.4182 10.481H5.58181C2.504 10.481 0 11.5243 0 12.8067V17.5158C0 17.7727 0.499803 17.981 1.11636 17.981H16.8836C17.5002 17.981 18 17.7727 18 17.5158V12.8067C18 11.5243 15.496 10.481 12.4182 10.481Z" fill="#474747"/>
    <path d="M9.0042 0C6.75104 0 4.91797 1.83307 4.91797 4.08628C4.91797 5.61461 5.7615 6.9494 7.00724 7.65019C7.59811 7.98257 8.27932 8.17252 9.0042 8.17252C9.72908 8.17252 10.4103 7.98257 11.0012 7.65019C12.2469 6.9494 13.0904 5.61457 13.0904 4.08628C13.0904 1.83312 11.2574 0 9.0042 0Z" fill="#474747"/>
  </g>
  <defs>
    <clipPath id="clip0_3_1354">
      <rect width="18" height="18" fill="white"/>
    </clipPath>
  </defs>
</svg>