<svg xmlns="http://www.w3.org/2000/svg" width="26" height="28" viewBox="0 0 26 28" fill="none">
  <g clip-path="url(#clip0_3_972)">
    <path d="M23.334 26.3722L21.8127 8.07532C21.7712 7.57565 21.3834 7.19292 20.919 7.19292H17.7818V5.66483C17.7818 2.81694 15.6366 0.5 12.9998 0.5C10.3631 0.5 8.21817 2.81694 8.21817 5.66483V7.19292H5.07886C4.61441 7.19292 4.22664 7.57565 4.18513 8.07532L2.65788 26.4442C2.63539 26.7153 2.71938 26.9839 2.88939 27.1847C3.05941 27.3855 3.29977 27.4999 3.55162 27.4999H22.4464C22.4471 27.4999 22.448 27.4999 22.4487 27.4999C22.9444 27.4999 23.3461 27.066 23.3461 26.5308C23.346 26.4769 23.3419 26.4238 23.334 26.3722ZM10.0128 5.66483C10.0128 3.88568 11.3528 2.43822 12.9999 2.43822C14.6472 2.43822 15.9873 3.88568 15.9873 5.66483V7.19292H10.0128V5.66483ZM4.53317 25.5618L5.89925 9.13113H8.21817V10.8642C8.21817 11.3994 8.61981 11.8333 9.1155 11.8333C9.61118 11.8333 10.0128 11.3994 10.0128 10.8642V9.13113H15.9873V10.8642C15.9873 11.3994 16.389 11.8333 16.8846 11.8333C17.3803 11.8333 17.782 11.3994 17.782 10.8642V9.13113H20.0987L21.4648 25.5618H4.53317Z" fill="#222222"/>
  </g>
  <defs>
    <clipPath id="clip0_3_972">
      <rect width="25" height="27" fill="white" transform="translate(0.5 0.5)"/>
    </clipPath>
  </defs>
</svg>